Coordinates
version=1
nRows=21
nColumns=38
inDegrees=no

Units are S.I. units (second, meters, Newtons, ...)
If the header above contains a line with 'inDegrees', this indicates whether rotational values are in degrees (yes) or radians (no).

endheader
time	pelvis_tilt	pelvis_list	pelvis_rotation	pelvis_tx	pelvis_ty	pelvis_tz	hip_flexion_r	hip_adduction_r	hip_rotation_r	knee_angle_r	ankle_angle_r	subtalar_angle_r	mtp_angle_r	hip_flexion_l	hip_adduction_l	hip_rotation_l	knee_angle_l	ankle_angle_l	subtalar_angle_l	mtp_angle_l	lumbar_extension	lumbar_bending	lumbar_rotation	arm_flex_r	arm_add_r	arm_rot_r	elbow_flex_r	pro_sup_r	wrist_flex_r	wrist_dev_r	arm_flex_l	arm_add_l	arm_rot_l	elbow_flex_l	pro_sup_l	wrist_flex_l	wrist_dev_l
1.57	2.73595	1.38426	-1.17352	0.73758	1.13356	0.962156	-0.0379132	0.140671	-0.317053	0.162602	0.00209376	0	0	0.0804207	-0.274198	-0.153951	1.16352	-0.289239	0	0	-0.281718	0.134401	0.080559	0.136514	-0.342808	1.00703	0.390593	0.71553	0	0	0.0992184	-0.171265	0.130093	0.293413	1.5708	0	0
1.58	2.7679	1.38315	-1.21115	0.739608	1.14141	0.963822	-0.0563773	0.138605	-0.308149	0.152445	0.00267982	0	0	0.10176	-0.268154	-0.144976	1.1788	-0.262727	0	0	-0.286273	0.126807	0.0867877	0.140356	-0.339159	1.01074	0.385037	0.711888	0	0	0.104549	-0.170631	0.130189	0.289433	1.5708	0	0
1.59	2.7988	1.3826	-1.24979	0.741752	1.14919	0.965356	-0.074355	0.136077	-0.297028	0.14149	0.00211748	0	0	0.120852	-0.261912	-0.140199	1.1871	-0.242566	0	0	-0.290118	0.118784	0.0954474	0.143379	-0.335853	1.01094	0.379587	0.711001	0	0	0.110391	-0.169165	0.129285	0.284571	1.5708	0	0
1.6	2.82995	1.38243	-1.28926	0.743844	1.15686	0.966736	-0.0908928	0.132633	-0.285834	0.132119	0.00274064	0	0	0.138697	-0.255082	-0.137294	1.18989	-0.224686	0	0	-0.29347	0.110574	0.105009	0.145781	-0.333077	1.00809	0.374867	0.712882	0	0	0.116752	-0.167431	0.128432	0.279619	1.5708	0	0
1.61	2.85972	1.38214	-1.32723	0.745845	1.1644	0.967985	-0.106539	0.128857	-0.276517	0.123915	0.00513515	0	0	0.155491	-0.248219	-0.135188	1.1881	-0.207452	0	0	-0.296854	0.102765	0.114725	0.148071	-0.330912	1.00346	0.371156	0.715763	0	0	0.123799	-0.165708	0.127282	0.273944	1.5708	0	0
1.62	2.88547	1.38149	-1.36171	0.747854	1.17189	0.969132	-0.122756	0.125666	-0.267116	0.114285	0.00629783	0	0	0.170385	-0.242918	-0.135867	1.18143	-0.192069	0	0	-0.300275	0.0956817	0.125069	0.150078	-0.329132	0.996402	0.367996	0.720039	0	0	0.130464	-0.164138	0.12566	0.269647	1.5708	0	0
1.63	2.90796	1.38026	-1.39333	0.749858	1.17939	0.970245	-0.140234	0.123006	-0.256287	0.102962	0.00563097	0	0	0.182746	-0.238931	-0.139287	1.16974	-0.179462	0	0	-0.304029	0.0893075	0.135697	0.152064	-0.327894	0.989097	0.365112	0.727043	0	0	0.136589	-0.162851	0.124122	0.266323	1.5708	0	0
1.64	2.92793	1.37908	-1.42177	0.751765	1.18685	0.971212	-0.157783	0.120642	-0.245463	0.0909083	0.00552442	0	0	0.194247	-0.235648	-0.14405	1.1542	-0.166872	0	0	-0.307443	0.0835059	0.145253	0.154276	-0.327091	0.981963	0.363022	0.733236	0	0	0.141758	-0.162482	0.123771	0.265001	1.5708	0	0
1.65	2.94345	1.37789	-1.44595	0.753682	1.19431	0.972076	-0.175471	0.118768	-0.233669	0.0783787	0.00502331	0	0	0.204383	-0.234066	-0.151314	1.13527	-0.151696	0	0	-0.310505	0.0784473	0.154718	0.156321	-0.32681	0.9749	0.36223	0.737947	0	0	0.146231	-0.162761	0.124658	0.264199	1.5708	0	0
1.66	2.95665	1.37631	-1.46668	0.755449	1.20172	0.972825	-0.193486	0.117114	-0.222574	0.0656437	0.00558997	0	0	0.213191	-0.233695	-0.160635	1.11321	-0.135324	0	0	-0.313857	0.0741069	0.162707	0.158768	-0.327186	0.971051	0.362605	0.742597	0	0	0.150169	-0.163569	0.126459	0.263862	1.5708	0	0
1.67	2.96952	1.37517	-1.48574	0.757043	1.20908	0.973358	-0.210527	0.11521	-0.21098	0.0534316	0.00529668	0	0	0.22167	-0.234332	-0.172152	1.08936	-0.116332	0	0	-0.316629	0.0700467	0.168845	0.161664	-0.32796	0.970038	0.36412	0.744212	0	0	0.153602	-0.164877	0.129668	0.264517	1.5708	0	0
1.68	2.98129	1.37351	-1.50347	0.758685	1.21666	0.973821	-0.228454	0.113485	-0.199166	0.0407864	0.00476722	0	0	0.227248	-0.235827	-0.186371	1.06162	-0.0986328	0	0	-0.319257	0.0660509	0.174272	0.164428	-0.328236	0.97102	0.365485	0.742928	0	0	0.155923	-0.166807	0.133438	0.26653	1.5708	0	0
1.69	2.9922	1.37096	-1.5186	0.760165	1.2242	0.974309	-0.247049	0.112048	-0.189587	0.0285948	0.00440954	0	0	0.230515	-0.235919	-0.19927	1.02982	-0.0836738	0	0	-0.322954	0.0625437	0.177648	0.16802	-0.327897	0.973394	0.366205	0.740017	0	0	0.158635	-0.168746	0.135999	0.267679	1.5708	0	0
1.7	3.00309	1.36878	-1.53266	0.76151	1.2317	0.974669	-0.263972	0.110412	-0.181441	0.0187871	0.00436572	0	0	0.232756	-0.234451	-0.211896	0.994379	-0.0697235	0	0	-0.326285	0.0592316	0.179394	0.172397	-0.327065	0.979352	0.365842	0.737101	0	0	0.16148	-0.170335	0.13679	0.267431	1.5708	0	0
1.71	3.0138	1.36672	-1.54604	0.762765	1.23925	0.974915	-0.280296	0.108583	-0.173401	0.00987435	0.00522731	0	0	0.233728	-0.231984	-0.225659	0.955962	-0.0553016	0	0	-0.329371	0.0560397	0.180015	0.177247	-0.325519	0.987001	0.364538	0.73281	0	0	0.16423	-0.171712	0.136966	0.266191	1.5708	0	0
1.72	3.0241	1.36466	-1.5577	0.76383	1.2467	0.975074	-0.295973	0.106804	-0.167287	0.00190282	0.00785455	0	0	0.23381	-0.228581	-0.239875	0.915218	-0.0394033	0	0	-0.332855	0.0532773	0.179148	0.182638	-0.324079	0.996334	0.363791	0.725971	0	0	0.167851	-0.173217	0.138633	0.263958	1.5708	0	0
1.73	3.03115	1.36367	-1.56532	0.76477	1.25411	0.975039	-0.308662	0.105433	-0.165236	0	0.0138657	0	0	0.234168	-0.225088	-0.254163	0.872519	-0.0241176	0	0	-0.33557	0.0514454	0.177574	0.187685	-0.322311	1.00181	0.363107	0.722902	0	0	0.17172	-0.17457	0.139934	0.261343	1.5708	0	0
1.74	3.03861	1.3626	-1.57278	0.765531	1.26151	0.974925	-0.320896	0.103907	-0.164497	0	0.0197479	0	0	0.232672	-0.220149	-0.269191	0.826278	-0.0104717	0	0	-0.338585	0.0498337	0.175312	0.192787	-0.32044	1.0073	0.361775	0.72045	0	0	0.176208	-0.175351	0.140923	0.25749	1.5708	0	0
1.75	3.04594	1.36202	-1.57948	0.766067	1.26889	0.974681	-0.33174	0.102168	-0.164036	0	0.0258951	0	0	0.230403	-0.213839	-0.28514	0.776971	0.00127355	0	0	-0.341268	0.0486628	0.172328	0.197905	-0.318634	1.01276	0.360073	0.717832	0	0	0.181449	-0.175569	0.141531	0.251724	1.5708	0	0
1.76	3.0585	1.3612	-1.59057	0.766457	1.27606	0.974516	-0.34205	0.0992922	-0.164666	0	0.0319995	0	0	0.224038	-0.198352	-0.288979	0.717131	0.008982	0	0	-0.344963	0.046538	0.168323	0.203677	-0.316543	1.01818	0.357934	0.714711	0	0	0.187988	-0.175691	0.141333	0.244727	1.5708	0	0
1.77	3.0354	1.35325	-1.56552	0.766557	1.28236	0.975491	-0.355006	0.106008	-0.166809	0	0.022893	0	0	0.210002	-0.194301	-0.300227	0.656744	0.0131169	0	0	-0.358535	0.0530569	0.16572	0.211298	-0.316888	1.02382	0.356542	0.711837	0	0	0.196897	-0.172723	0.139369	0.236206	1.5708	0	0
